<svg xmlns="http://www.w3.org/2000/svg" viewBox="0 0 120 120" width="120" height="120">
  <defs>
    <linearGradient id="goldGrad" x1="0%" y1="0%" x2="100%" y2="100%">
      <stop offset="0%" stop-color="#FFE066" />
      <stop offset="50%" stop-color="#FFCC00" />
      <stop offset="100%" stop-color="#E69900" />
    </linearGradient>
    <filter id="trophyGlow" x="-20%" y="-20%" width="140%" height="140%">
      <feDropShadow dx="0" dy="4" stdDeviation="6" flood-color="#FFCC00" flood-opacity="0.7"/>
    </filter>
  </defs>
  <circle cx="60" cy="60" r="56" fill="#0C1D38" stroke="url(#goldGrad)" stroke-width="4"/>
  <circle cx="60" cy="60" r="48" fill="#061020"/>
  <!-- World Champion Trophy -->
  <g filter="url(#trophyGlow)">
    <path d="M42 36 L78 36 L74 62 C74 72 60 76 60 76 C60 76 46 72 46 62 Z" fill="url(#goldGrad)"/>
    <path d="M42 42 C32 42 32 56 44 56" fill="none" stroke="#FFCC00" stroke-width="3.5" stroke-linecap="round"/>
    <path d="M78 42 C88 42 88 56 76 56" fill="none" stroke="#FFCC00" stroke-width="3.5" stroke-linecap="round"/>
    <path d="M56 76 L64 76 L66 84 L54 84 Z" fill="url(#goldGrad)"/>
    <rect x="46" y="84" width="28" height="6" rx="2" fill="#FFFFFF"/>
    <!-- Star on trophy -->
    <path d="M60 46 L62 51 L67 51 L63 54 L65 59 L60 56 L55 59 L57 54 L53 51 L58 51 Z" fill="#FFFFFF"/>
  </g>
</svg>
